<mxfile host="app.diagrams.net" modified="2024-03-15T11:56:04.410Z" agent="Mozilla/5.0 (Windows NT 10.0; Win64; x64) AppleWebKit/537.36 (KHTML, like Gecko) Chrome/122.0.0.0 Safari/537.36" etag="lHLB2vR6I-U7PwYWC0Va" version="23.1.6" type="github">
  <diagram name="Page-1" id="Xz1oz19cZANfa1XU0IhJ">
    <mxGraphModel dx="819" dy="495" grid="1" gridSize="10" guides="1" tooltips="1" connect="1" arrows="1" fold="1" page="1" pageScale="1" pageWidth="827" pageHeight="1169" math="0" shadow="0">
      <root>
        <mxCell id="0" />
        <mxCell id="1" parent="0" />
        <mxCell id="lp6lVazahgwYZuXnJik1-1" value="ECG device 1 (TX)" style="rounded=0;whiteSpace=wrap;html=1;" vertex="1" parent="1">
          <mxGeometry x="160" y="200" width="80" height="80" as="geometry" />
        </mxCell>
        <mxCell id="lp6lVazahgwYZuXnJik1-7" value="ECG device 2 (RX)" style="rounded=0;whiteSpace=wrap;html=1;" vertex="1" parent="1">
          <mxGeometry x="360" y="200" width="80" height="80" as="geometry" />
        </mxCell>
        <mxCell id="lp6lVazahgwYZuXnJik1-10" value="" style="html=1;shadow=0;dashed=0;align=center;verticalAlign=middle;shape=mxgraph.arrows2.triadArrow;dy=10;dx=20;arrowHead=40;rotation=-180;" vertex="1" parent="1">
          <mxGeometry x="240" y="220" width="120" height="130" as="geometry" />
        </mxCell>
        <mxCell id="lp6lVazahgwYZuXnJik1-8" value="ECG simulator" style="ellipse;whiteSpace=wrap;html=1;" vertex="1" parent="1">
          <mxGeometry x="240" y="320" width="120" height="80" as="geometry" />
        </mxCell>
        <mxCell id="lp6lVazahgwYZuXnJik1-11" value="ECG signal" style="text;html=1;align=center;verticalAlign=middle;whiteSpace=wrap;rounded=0;rotation=-90;" vertex="1" parent="1">
          <mxGeometry x="260" y="260" width="80" height="30" as="geometry" />
        </mxCell>
      </root>
    </mxGraphModel>
  </diagram>
</mxfile>
